<?xml version="1.0" encoding="UTF-8"?><svg id="Layer_2" xmlns="http://www.w3.org/2000/svg" viewBox="0 0 678.91 423.66"><defs><style>.cls-1{fill:#fa4e00;}.cls-2,.cls-3{fill:#0471e1;}.cls-4{fill:#016df0;}.cls-5{fill:#0075f7;}.cls-6{fill:#fff;}.cls-7{fill:#e5eefd;}.cls-8{fill:#fc6f00;}.cls-9{fill:#ff9600;}.cls-10{fill:#b8d3fa;}.cls-11{fill:#8db6f2;}.cls-12{fill:#d1d6e8;}.cls-13{fill:#e1eeff;}.cls-14{fill:#3a394c;}.cls-15{fill:#76a5eb;}.cls-16{fill:#4d5162;}.cls-17{fill:#0c499c;}.cls-17,.cls-18,.cls-19,.cls-20,.cls-21,.cls-3{isolation:isolate;}.cls-18{fill:#e5e6ef;}.cls-19{fill:#f4f5f9;}.cls-20{fill:#ebedf3;}.cls-21{fill:#053282;}</style></defs><g id="Layer_1-2"><g><g><path class="cls-17" d="M.31,247.88s-.02,.15-.06,.42c-1.53,11.48,4.1,22.72,14.17,28.44l257.16,145.83c3.52,2,7.97,1.2,10.58-1.89l4.73-5.61-6.98-6.81L.31,247.88Z"/><polygon class="cls-4" points="663.98 184.26 663.67 166.52 675.82 173.84 663.98 184.26"/><path class="cls-3" d="M4.59,240.8L406.14,11.49l263.06,158.36c2.99,1.8,2.98,6.15-.02,7.94l-387.27,230.65c-2.63,1.57-5.9,1.6-8.55,.08L4.6,255.57c-5.72-3.26-5.73-11.5-.01-14.77Z"/><polygon class="cls-6" points="622.6 201.61 294.04 393.64 23.45 236.92 355.55 46.39 622.6 201.61"/><path class="cls-21" d="M154.16,325.17c-.16,.51-.45,.96-.82,1.33-1.12,1.11-3.03,1.52-4.91,.92-2.51-.8-4.01-3.11-3.35-5.16,.08-.25,.19-.49,.32-.71,.96-1.56,3.2-2.24,5.4-1.54,2.51,.8,4.01,3.11,3.35,5.15Z"/><path class="cls-17" d="M153.34,326.49s0,0,0,.01c-1.12,1.11-3.03,1.52-4.91,.92-2.51-.8-4.01-3.11-3.35-5.16,.08-.25,.19-.49,.32-.71,1.18-.75,2.82-.96,4.45-.44,2.61,.84,4.17,3.24,3.49,5.37Z"/><path class="cls-5" d="M675.82,173.84s3.38,2.2,3.08,8.59c-.28,5.9-3.64,11.22-8.74,14.2l-390.8,226.21s3.51-7.83-2.27-13.21l398.73-235.8Z"/></g><g><g><polygon class="cls-10" points="386.42 210.41 385.18 326.77 560.81 229.2 563.67 105.45 386.42 210.41"/><polygon class="cls-17" points="549.15 131.39 548.39 156.22 548.27 160.37 548.17 163.54 547.9 172.54 546.77 209.45 523.94 222.3 517.04 226.18 513.25 228.32 510.73 229.74 465.94 254.95 459.03 258.85 452.77 262.37 449.79 264.05 397.56 293.45 398.49 233.53 398.54 230.5 398.63 225.2 398.75 217.3 398.77 217.29 443.18 191.93 445.79 190.43 449.89 188.09 455.83 184.7 513.73 151.62 520.5 147.75 523.3 146.15 526.41 144.38 549.15 131.39"/><polygon class="cls-21" points="465.94 254.95 459.03 258.85 398.63 225.2 398.75 217.3 398.77 217.29 465.94 254.95"/><polygon class="cls-21" points="452.77 262.37 449.79 264.05 398.49 233.53 398.54 230.5 452.77 262.37"/><polyline class="cls-21" points="455.83 184.7 523.94 222.3 517.04 226.18 449.89 188.09"/><polygon class="cls-21" points="513.25 228.32 510.73 229.74 443.18 191.93 445.79 190.43 513.25 228.32"/><polygon class="cls-21" points="548.17 163.54 547.9 172.54 513.73 151.62 520.5 147.75 548.17 163.54"/><polygon class="cls-21" points="548.39 156.22 548.27 160.37 523.3 146.15 526.41 144.38 548.39 156.22"/><polygon class="cls-15" points="385.18 326.77 219.64 231.82 219.64 115.03 386.42 210.41 385.18 326.77"/><polygon class="cls-18" points="323.33 204.36 323.33 291.29 271.11 261.34 271.11 173.63 323.33 204.36"/><polygon class="cls-19" points="323.33 245.05 323.33 247.58 271.11 217.77 271.11 214.86 323.33 245.05"/><path class="cls-19" d="M312.56,242.81l-5.47-2.99c-.55-.3-.87-.89-.83-1.52l.12-1.79c.08-1.17,1.35-1.86,2.37-1.29l5.45,3.01c.54,.3,.86,.88,.83,1.49l-.1,1.78c-.07,1.18-1.33,1.88-2.37,1.32Z"/><polygon class="cls-20" points="563.67 105.45 563.67 91.65 398.49 187.55 398.63 143.29 386.42 151.38 386.42 210.41 563.67 105.45"/><polygon class="cls-18" points="273.76 73.39 283.17 78.94 399.85 11.33 541.76 93.78 398.53 176.56 398.49 187.55 563.67 91.65 400.34 0 273.76 73.39"/><path class="cls-10" d="M283.17,78.94l5.78,3.41s8.78-4.68,17.25-3.87,13.3,2.26,13.3,2.26l78.64-46.61,1.7-22.8-116.67,67.61Z"/><polygon class="cls-15" points="398.15 34.13 523.35 104.42 541.76 93.78 399.85 11.33 398.15 34.13"/><path class="cls-11" d="M319.51,80.74l78.64-46.61,125.2,70.28-124.83,72.14,.1-33.27-50.1-28.26s-3.14-26.42-29.02-34.29Z"/><path class="cls-12" d="M219.64,115.03V55.81l60.03,34.29s12.27-12.28,34.35-.62c22.08,11.66,21.42,32.91,21.42,32.91l50.99,28.99v59.03L219.64,115.03Z"/><path class="cls-18" d="M233.96,49.89l-14.32,5.92,60.03,34.29s14.54-12.3,36.05,.33c19.75,11.6,19.71,31.97,19.71,31.97l50.99,28.99,12.2-8.09-50.1-28.26s-2.53-26.05-29.02-34.29c0,0-17.99-6.28-30.55,1.61l-55-32.47Z"/><polygon class="cls-19" points="397.56 293.45 397.56 295.87 548.08 210.41 550.43 130.61 549.15 131.39 546.77 209.45 397.56 293.45"/><g><polygon class="cls-2" points="271.65 104.16 271.65 129.9 278.9 134.37 278.9 124.03 289.53 130.09 289.53 140.73 297.09 145.1 297.09 119.36 289.53 114.89 289.53 124.63 278.9 118.37 278.9 108.73 271.65 104.16"/><path class="cls-2" d="M325.76,137.82c-7.11-8.67-16.61-12.64-21.21-8.86-4.6,3.77-2.56,13.86,4.56,22.54,7.11,8.67,16.61,12.64,21.21,8.86,4.6-3.77,2.56-13.86-4.56-22.54Zm-1.86,14.72c-2.31,1.89-7.08-.1-10.65-4.45-3.57-4.35-4.6-9.42-2.29-11.31,2.31-1.89,7.08,.1,10.65,4.45,3.57,4.35,4.59,9.42,2.29,11.31Z"/><path class="cls-2" d="M359.9,163.59c-.44-2.69-1.7-5.18-3.53-7.19-1.66-1.82-4.37-4.48-7.17-5.83l-10.87-6.46v25.54l7.45,4.67v-8.45l6.06,3.48s6.76,3.68,7.95-1.29c.37-1.55,.34-3.08,.11-4.46Zm-7.65-1.68c-.45,.95-1.34,1.01-2.04,.88-.51-.1-.98-.31-1.4-.61l-3.1-2.2v-6.29l4.58,3.15c.28,.19,.54,.42,.77,.67,1.23,1.42,1.38,2.84,1.38,3.55,0,.29-.06,.59-.18,.85Z"/><path class="cls-2" d="M262.56,105.37l3.15-2.95s-11.63-14.87-17.92-8.2c0,0-2.95,4.96,3.15,11.15l6.1,6.2s2.58,2.12,1.86,4.1c-.72,1.98-4.81-1.21-4.81-1.21l-5.26-5.35-2.83,3.32,5.16,5.38c1.57,1.63,3.38,3.01,5.39,4.06,2.63,1.38,6.62,3.28,9.17,.99,5.3-4.77-5.95-15.9-8.45-18.26-.22-.21-.45-.41-.68-.61-.66-.58-2.68-2.52-1.51-3.74,1.39-1.44,7.49,5.12,7.49,5.12Z"/></g><g><path class="cls-18" d="M241.47,126.95s-12.88,5.25-19.9,18.14c-1.34,2.45-2.47,5.18-3.25,8.21-1.1,4.25-4.85,7.33-9.21,7.56-3.22,.17-7.03-.82-10.79-4.57-4.32-4.3-4.91-9.91-4.29-14.72,.48-3.74,1.75-7.29,3.65-10.49,1.44-2.41,3.24-4.62,5.33-6.54,3.87-3.56,9.36-7,16.63-9.71l21.83,12.13Z"/><path class="cls-12" d="M221.57,145.09c-1.34,2.45-2.47,5.18-3.25,8.21-1.1,4.25-4.85,7.33-9.21,7.56-3.22,.17-7.03-.82-10.79-4.57-4.32-4.3-4.91-9.91-4.29-14.72,.48-3.74,1.75-7.29,3.65-10.49l23.89,14.01Z"/></g><path class="cls-8" d="M262.13,138.95s-12.94,5.28-19.95,18.22c-1.32,2.43-2.43,5.14-3.2,8.12-1.1,4.25-4.85,7.33-9.21,7.55-3.22,.17-7.03-.82-10.79-4.57-4.31-4.3-4.91-9.9-4.29-14.71,.47-3.71,1.73-7.23,3.6-10.41,1.45-2.44,3.26-4.68,5.38-6.63,3.87-3.56,9.74-7.58,17.75-9.5l20.71,11.92Z"/><path class="cls-1" d="M242.18,157.17c-1.32,2.43-2.43,5.14-3.2,8.12-1.1,4.25-4.85,7.33-9.21,7.55-3.22,.17-7.03-.82-10.79-4.57-4.31-4.3-4.91-9.9-4.29-14.71,.47-3.71,1.73-7.23,3.6-10.41l23.9,14.01Z"/><g><path class="cls-18" d="M282.92,150.76s-13.13,5.36-20.11,18.52c-1.25,2.35-2.3,4.96-3.05,7.83-1.1,4.25-4.85,7.33-9.21,7.55-3.22,.17-7.03-.82-10.8-4.57-4.31-4.3-4.91-9.9-4.29-14.71,.46-3.6,1.65-7.02,3.44-10.12,1.47-2.56,3.35-4.89,5.55-6.92,3.87-3.56,9.74-7.58,17.75-9.5l20.71,11.92Z"/><path class="cls-12" d="M262.82,169.27c-1.25,2.35-2.3,4.96-3.05,7.83-1.1,4.25-4.85,7.33-9.21,7.55-3.22,.17-7.03-.82-10.8-4.57-4.31-4.3-4.91-9.9-4.29-14.71,.46-3.6,1.65-7.02,3.44-10.12l23.9,14.02Z"/></g><g><path class="cls-8" d="M303.6,162.67s-13.24,5.4-20.19,18.68c-1.21,2.31-2.23,4.86-2.96,7.67-1.1,4.25-4.85,7.33-9.21,7.55-3.22,.17-7.03-.82-10.8-4.57-4.31-4.3-4.91-9.91-4.29-14.71,.46-3.54,1.61-6.91,3.34-9.96,1.49-2.62,3.4-5.01,5.64-7.08,3.88-3.56,9.74-7.58,17.75-9.5l20.71,11.92Z"/><path class="cls-1" d="M283.41,181.35c-1.21,2.31-2.23,4.86-2.96,7.67-1.1,4.25-4.85,7.33-9.21,7.55-3.22,.17-7.03-.82-10.8-4.57-4.31-4.3-4.91-9.91-4.29-14.71,.46-3.54,1.61-6.91,3.34-9.96l23.91,14.02Z"/></g><g><path class="cls-18" d="M324.27,174.57s-13.35,5.44-20.28,18.84c-1.17,2.27-2.16,4.76-2.87,7.5-1.1,4.25-4.85,7.33-9.21,7.55-3.22,.17-7.03-.82-10.79-4.57-4.32-4.3-4.91-9.91-4.29-14.72,.45-3.47,1.57-6.78,3.25-9.79,1.5-2.68,3.44-5.13,5.73-7.24,3.87-3.56,9.74-7.58,17.75-9.5l20.71,11.92Z"/><path class="cls-12" d="M303.99,193.42c-1.17,2.27-2.16,4.76-2.87,7.5-1.1,4.25-4.85,7.33-9.21,7.55-3.22,.17-7.03-.82-10.79-4.57-4.32-4.3-4.91-9.91-4.29-14.72,.45-3.47,1.57-6.78,3.25-9.79l23.92,14.02Z"/></g><g><path class="cls-8" d="M344.89,186.53s-13.42,5.47-20.33,18.95c-1.15,2.24-2.12,4.7-2.82,7.4-1.1,4.25-4.85,7.33-9.21,7.55-3.22,.17-7.03-.82-10.79-4.57-4.31-4.3-4.91-9.9-4.29-14.71,.44-3.43,1.55-6.71,3.2-9.69,1.51-2.73,3.47-5.21,5.79-7.34,3.88-3.56,9.74-7.58,17.75-9.5l20.71,11.92Z"/><path class="cls-1" d="M324.56,205.48c-1.15,2.24-2.12,4.7-2.82,7.4-1.1,4.25-4.85,7.33-9.21,7.55-3.22,.17-7.03-.82-10.79-4.57-4.31-4.3-4.91-9.9-4.29-14.71,.44-3.43,1.55-6.71,3.2-9.69l23.92,14.03Z"/></g><g><path class="cls-18" d="M365.69,198.41s-13.58,5.54-20.46,19.2c-1.1,2.17-2.02,4.55-2.69,7.15-1.1,4.25-4.85,7.33-9.21,7.55-3.22,.17-7.03-.82-10.79-4.57-4.31-4.3-4.91-9.91-4.29-14.72,.43-3.34,1.49-6.53,3.07-9.45,1.52-2.82,3.53-5.38,5.92-7.58,3.87-3.56,9.74-7.58,17.75-9.5l20.71,11.92Z"/><path class="cls-12" d="M345.24,217.61c-1.1,2.17-2.02,4.55-2.69,7.15-1.1,4.25-4.85,7.33-9.21,7.55-3.22,.17-7.03-.82-10.79-4.57-4.31-4.3-4.91-9.91-4.29-14.72,.43-3.34,1.49-6.53,3.07-9.45l23.93,14.03Z"/></g><g><polygon class="cls-9" points="358.36 243 386.25 226.7 386.42 210.33 364.45 214.33 358.36 243"/><path class="cls-8" d="M386.42,210.33s-13.7,5.59-20.54,19.37c-1.05,2.13-1.95,4.44-2.6,6.97-1.1,4.25-4.85,7.33-9.21,7.55-3.22,.17-7.03-.82-10.8-4.57-4.31-4.3-4.91-9.91-4.29-14.72,.42-3.27,1.45-6.4,2.97-9.27,1.54-2.89,3.57-5.51,6.01-7.76,3.88-3.56,9.74-7.58,17.75-9.5l20.71,11.92Z"/><path class="cls-1" d="M365.88,229.71c-1.05,2.13-1.95,4.44-2.6,6.97-1.1,4.25-4.85,7.33-9.21,7.55-3.22,.17-7.03-.82-10.8-4.57-4.31-4.3-4.91-9.91-4.29-14.72,.42-3.27,1.45-6.4,2.97-9.27l23.93,14.03Z"/></g><polygon class="cls-13" points="285.66 306.3 308 293.03 267.43 268.7 247.31 282.47 285.66 306.3"/></g><g><path class="cls-2" d="M249.3,316.61s-.66,3.81-3.3,5.88c-.43,.34-.79,.76-1.06,1.24-.5,.87-.81,2.11,.54,3.08,0,0,2.81,1.39,6-2.43,0,0,.92-1.29,2.93-1.29,0,0,3.54-.48,3.27-5.27,0,0-5.33,1.06-8.37-1.21Z"/><path class="cls-2" d="M242.79,309.57s-.98,4.03-5.99,7.28c0,0-2.37,1.39-.83,2.89,0,0,3.69,1.6,8.53-1.19,0,0,3.55-2.64,5.67-1.94,0,0,.77-5.39-7.38-7.04Z"/><path class="cls-16" d="M241.35,279.84s-2.92,5.98-1.18,13.49c0,0,2.48,12.52,1.3,18.99,0,0,3.6,4,8.43,2.64,0,0-3.41-18.77,.63-30.04,0,0-5.29-1-9.18-5.08Z"/><path class="cls-14" d="M259.64,284.23s-.48,11.33-2.71,15.77c0,0,3.54,11.42,.74,17.82,0,0-4.03,3.04-8.71,0,0,0-4.88-23.28,.04-34.13,0,0,5.87,3.91,10.63,.54Z"/><path class="cls-10" d="M257.58,244.65c-.37,4.57-1,7.72-1,7.72-4,3.84-8.06,0-8.06,0,.21-.76,.41-1.6,.57-2.44,.6-2.99,.88-6.03,.88-6.03,5.51-.67,7.85-6.74,7.85-6.74,.05,2.7-.07,5.26-.24,7.49Z"/><path class="cls-11" d="M257.58,244.65c-2.38,5.67-6.4,5.71-8.49,5.28,.6-2.99,.88-6.03,.88-6.03,5.51-.67,7.85-6.74,7.85-6.74,.05,2.7-.07,5.26-.24,7.49Z"/><path class="cls-17" d="M248.52,252.37s-13.14,1.77-21.9-7.05c-.5-.5-1.31-.52-1.82-.03s-.98,1.4-1.08,3.12c-.02,.39,.14,.76,.42,1.03,1.96,1.83,10.39,9.12,22.14,10.69l2.23-7.76Z"/><path class="cls-7" d="M226.39,245.62s-.27-.94-.22-3.23c0-.27-.25-.49-.51-.43-.37,.09-.86,.39-1.21,1.31,0,0-1.42-1.47-2.22-3.88-.11-.34-.49-.53-.82-.4-.81,.3-2.17,1.12-2.72,3.31-.02,.09-.03,.18,0,.28,.16,.83,1.15,5.08,5.32,6.71,0,0,2.61-.49,2.39-3.67Z"/><ellipse class="cls-10" cx="248.93" cy="237.16" rx="8.62" ry="10.92"/><path class="cls-2" d="M242.19,283.33c-.32-.25-.65-.49-.99-.73-.79-.54-2.29-1.86-1.7-3.85,.79-2.65,7.17-16.61,7.34-24.34l1.68-2.04s4.01,1.85,8.06,0c0,0,5.4,2.38,6.98,7.47,0,0,.69,13.78-3.68,25.29-.26,.68-.76,1.25-1.43,1.55-.91,.42-2.4,.93-4.38,1.03-2.27,.11-4.52-.38-6.59-1.33-1.53-.7-3.71-1.81-5.29-3.04Z"/><path class="cls-17" d="M257.73,261.42c-.19-1.13,.07-2.32,.79-3.22,.49-.6,1.2-1.14,2.26-1.31,2.82-.45,3.33,3.23,3.33,3.23,0,0,3.05,15.07,.62,28.06,0,0-2.2,1.58-6.1,0,0,0,2.09-9.02-.91-26.77Z"/><path class="cls-16" d="M238.68,224.12s.18,7.47,9.17,5.04c7.3-1.97,7.15,3.23,6.84,5.25-.1,.64,.59,1.11,1.14,.79,.01,0,.03-.01,.04-.02,1.21-.73,1.52-.12,1.52-.12,0,0,.76,1.51-.48,3.16-.15,.2-.1,.49,.11,.62,.33,.21,.9,.39,1.72,.06,.11-.05,.19-.14,.23-.25,.38-1.11,2.26-7.26-1.16-12.82,0,0,.55-.39,.74-.95,.14-.42-.13-.87-.56-.96-.24-.05-.54-.08-.9-.03,0,0,.36-1.21-.24-1.76s-1.76,.61-1.76,.61c0,0-2.6-2.25-5.83-1.03,0,0-6.93,3.22-10.57,2.43Z"/><path class="cls-10" d="M258.72,293.7c1.46-.42,5.17-1.87,5.22-5.74,0,0-2.64,.59-5.15-.53,0,0-.45,1.05-1.29,1.71-.51,.4-.13,1.25,.51,1.13,.01,0,.02,0,.03,0,.2-.04,.37,.13,.31,.33-.13,.37-.38,.87-.89,1.22-.25,.17-.44,.44-.5,.74s0,.63,.38,.92,.91,.37,1.39,.23Z"/></g><g><g><g><path class="cls-14" d="M177.63,341.77s-2.09,4.83,.45,7.49,7.12-.93,7.12-.93c0,0,3.4-2.83,6.38-3.02,0,0,7-1.05,5.69-7.07,0,0-1.23-2.86-5.81-1.1s-7.32,.78-7.32,.78c0,0-4.3-1.35-6.51,3.85Z"/><path class="cls-10" d="M180.39,297.72c-.91,.06-1.73,.59-2.16,1.4-.95,1.77-2.22,5.8-1.33,14.06,0,0,.48,6.36-.86,11.71s0,16.45,0,16.45c0,0,1.09,4.54,6.33,3.91,0,0,4.54,.23,4.15-4.62,0,0-.86-12.36,1.33-21.44,0,0,1.55-11.44-1.37-18.76-.18-.46-.49-.85-.88-1.15-.91-.67-2.77-1.73-5.21-1.57Z"/></g><g><path class="cls-16" d="M190.15,344.51s-1.47,3.31-.9,6.38c.23,1.21,.98,1.91,1.82,2.33,1.25,.62,2.72,.58,3.99,0,1.57-.72,4.24-1.86,5.63-2,0,0,6.29-.57,7.51-4.21,.66-1.95-.27-2.87-1.27-3.3-.78-.34-1.66-.39-2.49-.21-1.28,.28-4.12,.71-6.8-.17-3.6-1.19-7.49,1.19-7.49,1.19Z"/><path class="cls-11" d="M184.87,301.13s-2.97,7.28,0,15.1c2.9,7.63,5.65,19.87,4.84,28.38-.05,.48,.04,.97,.28,1.39,.8,1.41,3.09,4.19,8.24,2.36,.87-.31,1.48-1.1,1.55-2.01,.4-4.61,1.53-19.33,.42-26.98-1.33-9.15-1.88-13.48-1.88-13.48,0,0-4.93-6.55-13.46-4.75Z"/></g></g><polygon class="cls-9" points="206.9 303.22 206.9 276.4 226.38 265.58 226.38 292.76 206.9 303.22"/><polygon class="cls-8" points="226.38 265.58 207.25 253.72 189.07 264.28 206.9 276.4 226.38 265.58"/><polygon class="cls-1" points="206.9 303.22 189.07 290.42 189.07 264.28 206.9 276.4 206.9 303.22"/><ellipse class="cls-10" cx="190.22" cy="253.3" rx="8.19" ry="10.97"/><path class="cls-10" d="M183.18,257.62s-.06,5.3,.88,9.59c0,0,3.02,2.53,8.03,.54,0,0-1.27-2.29-.78-7.01,0,0-4.77-.49-8.13-3.11Z"/><path class="cls-10" d="M219.34,293.12s3.43-3.34,4.15-2.84c0,0,.52,.42-.83,2.62,0,0,.78,.21,3.12,.17,0,0,.18,3.74-4.64,4.48,0,0-2.86,.49-5.32-1.58l3.53-2.86Z"/><path class="cls-16" d="M176.63,277.81s-1.34-6.87,0-9.1,2.54-2.36,2.54-2.36c0,0,2.46-.96,6.39,.66,1.64,.68,3.43,.99,5.19,.81,.69-.07,1.29-.22,1.63-.48,0,0,2.41,.58,7.12,4.75l2.1,19.21c.19,1.76,.31,3.52,.36,5.28l.15,5.56s.4,6.96-6.78,7.01c-6.1,.04-14.89-6.57-17.41-8.58-1-.8-1.48-2.09-1.21-3.34,.02-.07,.03-.14,.05-.21,.21-.83,.36-1.67,.4-2.53,.13-3.19,.29-10.62-.52-16.67Z"/><path class="cls-16" d="M181.42,252.61s-.44,4.96,.97,6.67c0,0,2.59,2.43,6.99,1.41,0,0,2.84-1.04,4.64-7.38,0,0-8.08-8.33-12.6-.69Z"/><g><path class="cls-8" d="M182.16,255.17c-1.74-1.91-2.23-4.64-1.4-7.08,1.07-3.15,3.45-7.97,8.05-8.17,1.38-.06,2.55,.05,3.53,.27,2.66,.6,4.7,2.73,5.28,5.4l.8,3.7-3.37,4.64c-1.13,1.55-2.79,2.65-4.67,3.02s-4.39,.47-6.75-.59c0,0-.68-.32-1.47-1.19Z"/><path class="cls-1" d="M198.41,249.28l3.04-3.73s1.2-1.92-.74-2.87c-1.95-.95-4.7,.89-4.7,.89l2.4,5.71Z"/></g><path class="cls-14" d="M200.89,274.65s-.73-3.96-4.09-3.17c-2.04,.48-2.53,2.52-2.61,4.04-.04,.8,.05,1.61,.22,2.4l2.64,11.97c.66,3.01,3.28,5.2,6.36,5.3,.05,0,.1,0,.15,0l13.63,.88s1.66-.03,2.6-2.08c.36-.8-.08-1.73-.92-1.96-2.25-.61-6.95-1.8-11.85-2.49-.33-.05-.61-.27-.72-.58l-5.41-14.3Z"/></g></g></g></g></svg>